<svg height="47.9206" viewBox="0 0 41.5184 47.9206" width="41.5184" xmlns="http://www.w3.org/2000/svg"><g fill="#eee"><path d="m20.7764 0-20.7764 11.9806v23.9594l20.7764 11.9806 20.742-11.9806v-23.9594zm19.2654 34.5339-1.1371-.3691v.2624l-5.2634 3.0452c-4.1888 6.83-12.43 8.6515-12.43 8.6515l-.2871-1.3159-.1477.0888-5.27-3.0437c-7.6865-.5069-13.0965-6.3906-13.0965-6.3906l.7827-.7055-.571-.33v-7.234c-2.8892-6.6972-.661-13.808-.661-13.808l.6611.2182v-.11l6.45-3.7162c4.3841-5.5916 11.3916-7.1257 11.3916-7.1257l.1033.489.21-.1165 5.3633 3.0962c7.6456.53 13.0355 6.3923 13.0355 6.3923l-.77.6923.4988.2887v6.2562c3.5884 6.9631 1.1371 14.7845 1.1371 14.7845"/><path d="m37.49 14.03c-4.4643-4.612-12.4761-7.5752-19.4359-3.5636a12.3832 12.3832 0 0 0 -1.04.7612h5.0075a12.5109 12.5109 0 0 1 5.4735 0h.6317l.105.1739a18.3067 18.3067 0 0 1 4.0887 1.5751 16.6368 16.6368 0 0 1 6.2577 6.15v-5.439l-.4315-.2495z"/><path d="m24.65 36.693h-4.6547a12.3532 12.3532 0 0 1 -5.4717 0h-1.1025l-.1756-.315a18.2449 18.2449 0 0 1 -3.5669-1.4389 16.28 16.28 0 0 1 -6.727-7.0633v6.3676l.4988.2823.6431-.5825c4.4726 4.6137 12.5006 7.5752 19.4507 3.5588a11.2158 11.2158 0 0 0 1.1058-.809"/><path d="m8.1708 20.2974 1.5618-2.6942c.8992-5.7063 6.9158-9.1879 6.9158-9.1879a16.5836 16.5836 0 0 1 8.7253-2.3577l-4.5973-2.6516-.1378.0757.3 1.3864c-6.223 1.5635-12.8073 7.0219-12.8073 15.0486 0 .14.04.2445.04.3807"/><path d="m31.8989 30.1547c-.7678 5.8328-6.9484 9.4014-6.9484 9.4014a16.5743 16.5743 0 0 1 -8.6893 2.361l4.5152 2.6055.0738-.0444-.12-.5692a17.6032 17.6032 0 0 0 2.9566-1.0731l3.2749-1.8818a14.8763 14.8763 0 0 0 6.5662-12.0988 11.52 11.52 0 0 0 -.1361-1.28z"/><path d="m10.77 32.693c.1624.09.3019.1213.4544.2035l-1.5044-2.6055a12.3981 12.3981 0 0 1 -3.416-5.8918l-.2476-.4413.0919-.1608a17.7857 17.7857 0 0 1 -.51-3.6885 16.1931 16.1931 0 0 1 3.0027-9.71l-5.6894 3.2814v.0228l1.1732.3856c-1.7589 6.1716-.3232 14.593 6.6452 18.6046"/><path d="m31.2475 15.2225a9.8536 9.8536 0 0 0 -1.0927-.4741l2.75 4.7614a12.3147 12.3147 0 0 1 1.9017 3.2879l.671 1.16-.1724.3a18.1111 18.1111 0 0 1 .7057 4.4086 16.488 16.488 0 0 1 -2.0838 8.2576l4.6481-2.6809v-.187l-.694-.2214c1.7523-6.1757.3135-14.5944-6.6334-18.6125"/><path d="m27.7593 11.8853h-13.9511l-7.0042 12.0726 7.0042 12.0821h13.9511l6.9648-12.0822zm-2.7893 18.6715v-7.6786l-1.575 2.8483h-6.8188v4.83h-4.84v-13.1965h4.84v4.8631h7.9213l.4726-.8958v-3.9673h4.8352v13.1968z"/></g></svg>