<svg height="59.6805" viewBox="0 0 59.2669 59.6805" width="59.2669" xmlns="http://www.w3.org/2000/svg"><g fill="#eee"><path d="m28.6608 10.4834-2.8759 12.7656h10.5234l2.876-12.7656h10.3632l-9.8446-8.5018a8.1487 8.1487 0 0 0 -7.9262-1.5555l-21.6408 7.2865a8.1485 8.1485 0 0 0 -5.3712 6.0328l-4.5873 21.6389a8.1482 8.1482 0 0 0 2.6454 7.857l2.1585 1.8641 7.8612-34.622z"/><path d="m56.444 16.4392-2.3358-2.0172-3.8509 16.9587a45.0255 45.0255 0 0 1 -7.3836 10.01c-5.22 5.3434-9.9426 7.3834-12.5607 8.1581l2.8576-12.684h-10.5234l-2.876 12.7656h-9.55l9.3428 8.0686a8.1485 8.1485 0 0 0 7.926 1.5554l21.6408-7.2865a8.1487 8.1487 0 0 0 5.3713-6.0327l4.5879-21.6389a8.1485 8.1485 0 0 0 -2.646-7.8571zm-20.7676 33.1916a36.5081 36.5081 0 0 0 8.7384-6.7338 48.0937 48.0937 0 0 0 4.416-5.2348l-2.7178 11.9686z"/></g></svg>