<svg height="70.125" viewBox="0 0 183.0078 70.125" width="183.0078" xmlns="http://www.w3.org/2000/svg"><g fill="#fff"><path d="m14.9863 31.45v-13.51h-7.0195v13.51h-5.9053v-31.0076h5.9053v13.0676h7.02v-13.0676h5.9053v31.0076z"/><path d="m31.5879 4.7842v8.7705h8.6348v4.3408h-8.6348v9.2139h10.6963v4.3406h-16.6016v-31.0076h16.6016v4.3418z"/><path d="m58.6064 31.45-1.2812-7.043h-6.5176l-1.2812 7.043h-5.9053l6.7412-31.0076h7.5205l6.7412 31.0076zm-7.0185-11.2957h4.958l-2.3959-13.0674h-.167z"/><path d="m74.9307 4.8721v26.5779h-5.9053v-26.5779h-6.2954v-4.4297h18.4956v4.43z"/><path d="m101.6719 7.84v16.2127c0 4.8731-3.6211 7.8409-9.5264 7.8409s-9.5264-2.9678-9.5264-7.8409v-16.2127c0-4.872 3.6211-7.84 9.5264-7.84s9.5264 2.9678 9.5264 7.84zm-13.1475.045v16.124c0 2.3027 1.2813 3.543 3.6211 3.543s3.6211-1.24 3.6211-3.543v-16.1242c0-2.3037-1.2812-3.544-3.6211-3.544s-3.6211 1.2403-3.6211 3.544z"/><path d="m119.2764 31.45-7.7442-20.5537h-.1113v20.5537h-5.57v-31.0076h6.5732l6.9639 18.4717h.1113v-18.4717h5.5707v31.0076z"/><path d="m17.8828 45.3184v.8867l-5.6828.4424v-.9746c0-2.126-1.0029-3.1006-3.0635-3.1006-1.7275 0-2.9531.7529-2.9531 2.5254v.664c0 1.7276 1.1143 3.1445 4.958 5.9356 5.2373 3.8535 7.02 6.3789 7.02 9.9668v1.5059c0 4.5625-3.6211 6.9551-9.0244 6.9551-5.4602-.0001-9.137-2.5251-9.137-7.088v-2.0371l5.6826-.4434v2.126c0 2.082 1.2256 3.1006 3.3428 3.1006 1.7822 0 3.2305-.7529 3.2305-2.9678v-.9746c0-1.9482-1.1143-3.3662-4.958-6.1572-5.2364-3.8536-7.0196-6.3779-7.0196-9.7451v-.753c0-4.5625 3.3428-6.9541 8.8028-6.9541s8.8017 2.5245 8.8017 7.087z"/><path d="m33.3135 69.6816-1.2813-7.0429h-6.5176l-1.2812 7.0429h-5.9053l6.7412-31.0078h7.52l6.7413 31.0078zm-7.0186-11.2959h4.958l-2.3955-13.0673h-.1674z"/><path d="m55.4316 69.6816-7.7441-20.5537h-.1113v20.5537h-5.57v-31.0078h6.5732l6.9636 18.4717h.1113v-18.4717h5.5713v31.0078z"/><path d="m66.0166 69.6816v-31.0078h5.9053v31.0078z"/><path d="m86.2949 43.1035v26.5781h-5.9049v-26.5781h-6.2962v-4.43h18.4962v4.43z"/><path d="m105.6826 69.6816-1.2826-7.0429h-6.5172l-1.2812 7.0429h-5.9053l6.7412-31.0078h7.52l6.7412 31.0078zm-7.0195-11.2959h4.958l-2.3955-13.0673h-.167z"/><path d="m122.0059 43.1035v26.5781h-5.9053v-26.5781h-6.2959v-4.43h18.4961v4.43z"/><path d="m130.4736 69.6816v-31.0078h5.9053v31.0078z"/><path d="m159.6094 46.0713v16.2129c0 4.873-3.6211 7.8408-9.5264 7.8408s-9.5264-2.9678-9.5264-7.8408v-16.2129c0-4.8721 3.6211-7.84 9.5264-7.84s9.5264 2.9679 9.5264 7.84zm-13.1475.0449v16.1238c0 2.3028 1.2813 3.543 3.6211 3.543s3.6211-1.24 3.6211-3.543v-16.1238c0-2.3037-1.2812-3.5439-3.6211-3.5439s-3.6211 1.2402-3.6211 3.5439z"/><path d="m177.2139 69.6816-7.7439-20.5537h-.1113v20.5537h-5.57v-31.0078h6.5732l6.9639 18.4717h.1113v-18.4717h5.5713v31.0078z"/></g></svg>