<svg height="59.6805" viewBox="0 0 215.2225 59.6805" width="215.2225" xmlns="http://www.w3.org/2000/svg"><path d="m77.6667 7.1733v11.4381h-5.2216v-11.4381h-5.0089v-3.9683h15.2393v3.9683z"/><path d="m95.4768 18.6114v-5.7437h-5.4061v5.7437h-5.2216v-15.4064h5.2216v5.6206h5.4061v-5.6206h5.2216v15.4064z"/><path d="m103.7728 18.6114v-15.4064h12.934v3.7714h-7.8451v2.0215h6.2015v3.7714h-6.2015v2.0707h7.8451v3.7714z"/><path d="m78.9648 37.3584v-5.7436h-5.4062v5.7436h-5.2215v-15.4063h5.2215v5.6206h5.4062v-5.6206h5.2216v15.4063z"/><path d="m94.8141 37.7285c-4.4 0-7.7124-1.7746-7.7124-6.4336v-9.3428h5.2216v8.7513c0 2.0707.7682 3.0313 2.5708 3.0313 1.7227 0 2.4381-.7638 2.4381-2.9083v-8.8743h5.1952v8.9479c0 4.7578-3.1808 6.8285-7.7133 6.8285z"/><path d="m110.6643 37.3584h-5.2216v-15.4063h7.5006c4.6116 0 7.0506 1.9723 7.0506 5.0537a4.5584 4.5584 0 0 1 -3.2335 4.4367l4.108 5.9159h-5.7779l-2.969-4.6837-1.4572.124zm1.6963-8.0358c1.59-.1477 2.2263-.7146 2.2263-1.9723 0-1.1338-.7155-1.7007-2.5981-1.7007h-1.4308v3.6976z"/><path d="m127.9981 37.3584h-5.2216v-15.4063h7.5006c4.6116 0 7.0506 1.9723 7.0506 5.0537a4.5584 4.5584 0 0 1 -3.2335 4.4367l4.108 5.9159h-5.7779l-2.969-4.6837-1.4572.124zm1.6963-8.0358c1.59-.1477 2.2263-.7146 2.2263-1.9723 0-1.1338-.7155-1.7007-2.5981-1.7007h-1.4308v3.6976z"/><path d="m140.1367 37.3584v-15.4063h5.2216v15.4063z"/><path d="m161.1548 26.685a8.7834 8.7834 0 0 0 -3.9761-1.0354 3.7393 3.7393 0 0 0 -4.0817 3.9692c0 2.4891 1.4045 4.0421 4.0817 4.0421a8.5845 8.5845 0 0 0 4.2143-1.1338l1.14 4.166a14.95 14.95 0 0 1 -5.6189 1.0354c-5.54 0-9.065-2.6869-9.065-8.0113 0-5.0045 3.4725-8.1351 9.2768-8.1351a14.9176 14.9176 0 0 1 5.5925 1.0845z"/><path d="m181.2976 37.3584h-5.1676l-1.0335-2.8837h-5.6189l-.9809 2.8837h-5.1424l5.6988-15.4063h6.6524zm-8.9587-11.93-1.8553 5.3982h3.6052z"/><path d="m194.3643 21.9521h4.85v15.5549h-5.5389l-5.9642-8.8743v8.7257h-4.85v-15.4063h5.6188l5.8843 8.7513z"/><path d="m202.2885 37.3584v-15.4063h12.934v3.7714h-7.8451v2.0215h6.2026v3.7713h-6.2024v2.0707h7.8451v3.7714z"/><path d="m76.9512 56.4755c-5.54 0-9.2241-2.8344-9.2241-8.0112 0-5.1275 3.5253-8.1352 9.2769-8.1352a15.29 15.29 0 0 1 6.6 1.3316l-1.6172 3.9929a10.1266 10.1266 0 0 0 -4.7707-1.2569c-2.6772 0-4.2935 1.6269-4.2935 3.9692 0 2.7114 1.2718 4.2152 4.188 4.2152a7.12 7.12 0 0 0 2.1463-.2962v-1.553h-3.79v-3.7219h8.4287v8.06a16.4334 16.4334 0 0 1 -6.9444 1.4055z"/><path d="m91.8461 56.1055h-5.2216v-15.4063h7.5014c4.6117 0 7.05 1.9722 7.05 5.0537a4.5586 4.5586 0 0 1 -3.2338 4.4371l4.1081 5.9159h-5.778l-2.968-4.6837-1.4581.1239zm1.6962-8.0355c1.59-.1477 2.2263-.7146 2.2263-1.9723 0-1.1338-.7154-1.7007-2.5972-1.7007h-1.4314v3.6976z"/><path d="m111.777 56.4755c-4.9561 0-8.826-2.6622-8.826-8.0358 0-5.0291 3.95-8.1106 8.906-8.1106s8.826 2.6376 8.826 8.0113c0 5.0296-3.9498 8.1351-8.906 8.1351zm0-12.3249c-2.4117 0-3.578 1.7253-3.578 4.19 0 2.5391 1.2463 4.3145 3.658 4.3145 2.3853 0 3.578-1.7508 3.578-4.2152 0-2.5394-1.2463-4.2893-3.658-4.2893z"/><path d="m130.7016 56.4755c-4.4 0-7.7133-1.7745-7.7133-6.4336v-9.3427h5.2217v8.7508c0 2.0707.7691 3.0314 2.5708 3.0314 1.7227 0 2.439-.7638 2.439-2.9083v-8.8739h5.1943v8.9481c-.0001 4.7575-3.18 6.8282-7.7125 6.8282z"/><path d="m147.8763 51.9641h-1.3254v4.1414h-5.2215v-15.4063h6.8915c4.6916 0 7.3678 2.2183 7.3678 5.5212 0 3.6976-2.6499 5.7437-7.7124 5.7437zm-.0527-7.5674h-1.4317v4.0184l1.3253-.0246c1.8554-.0246 2.7036-.7155 2.7036-2.0707 0-1.2578-.9008-1.9231-2.5972-1.9231z"/><path d="m28.6608 10.4834-2.8759 12.7656h10.5234l2.876-12.7656h10.3632l-9.8446-8.5018a8.1487 8.1487 0 0 0 -7.9262-1.5555l-21.6408 7.2865a8.1485 8.1485 0 0 0 -5.3712 6.0328l-4.5873 21.6389a8.1482 8.1482 0 0 0 2.6454 7.857l2.1585 1.8641 7.8612-34.622z"/><path d="m56.444 16.4392-2.3358-2.0172-3.8509 16.9587a45.0255 45.0255 0 0 1 -7.3836 10.01c-5.22 5.3434-9.9426 7.3834-12.5607 8.1581l2.8576-12.684h-10.5234l-2.876 12.7656h-9.55l9.3428 8.0686a8.1485 8.1485 0 0 0 7.926 1.5554l21.6408-7.2865a8.1487 8.1487 0 0 0 5.3713-6.0327l4.5879-21.6389a8.1485 8.1485 0 0 0 -2.646-7.8571zm-20.7676 33.1916a36.5081 36.5081 0 0 0 8.7384-6.7338 48.0937 48.0937 0 0 0 4.416-5.2348l-2.7178 11.9686z"/></svg>