<svg height="297.4961" viewBox="0 0 934.1314 297.4961" width="934.1314" xmlns="http://www.w3.org/2000/svg" xmlns:xlink="http://www.w3.org/1999/xlink"><pattern id="a" height="14.667" patternUnits="userSpaceOnUse" viewBox="0 0 14.667 14.667" width="14.667"><path d="m0 0h14.667v14.667h-14.667z" fill="none"/><path d="m0 0h14.667v14.667h-14.667z" fill="#231f20"/></pattern><path d="m128.82 0-128.82 74.374v148.748l128.82 74.374 128.819-74.374v-148.748z" fill="#ac782d"/><path d="m2 221.968v-146.44l126.82-73.218 126.819 73.218v146.44l-126.819 73.218z" fill="#c4912c"/><path d="m18 212.729v-127.962l110.82-63.983 110.819 63.983v127.962l-110.819 63.983z" fill="#bebdbc"/><path d="m20 211.575v-125.654l108.82-62.827 108.819 62.827v125.654l-108.819 62.827z" fill="url(#a)"/><path d="m199.39 81.6416s-67.377-38.9-101.3575 19.9492c0 0-15.7988 26.8575-3.27 50.4512-3.7812-1.8633-8.9062-5.1016-11.6719-9.8926-4.73-8.1933-13.3808-51.334 29.1231-75.875 42.5039-24.5371 91.4824-6.4258 118.7637 21.77l10.3026-9.3032s-62.4528-68.4336-137.6579-25.0156c0 0-67.3789 38.9-33.4024 97.752 0 0 18.834 33.2382 51.0411 27.3867l-.0606.082s-8.9785 8.2441-18.4394 8.2441-51.1485-14.0761-51.1485-63.1543c0-49.08 40.1758-82.4414 78.2363-91.9707l-2.9062-13.5722s-90.4941 19.8691-90.4941 106.7068c0 0 0 77.8027 67.955 77.8027 0 0 32.7325.2637 46.3516-24.1386a23.7125 23.7125 0 0 1 -2.7715 10.5566c-4.73 8.1934-37.7637 37.2559-80.2676 12.7168s-51.3086-76.0115-40.5312-113.7381l-13.207-4.2694s-28.0391 88.3047 47.164 131.7227c0 0 67.3789 38.9023 101.3574-19.9493 0 0 14.752-25.082 4.4336-48.06a23.9032 23.9032 0 0 1 7.9688 7.8144c4.73 8.1934 13.3828 51.334-29.1211 75.875-42.5039 24.5371-91.4824 6.4258-118.7656-21.7695l-10.3008 9.3027s62.4531 68.433 137.6561 25.0151c0 0 67.3789-38.9 33.4024-97.752 0 0-15.4844-27.3262-42.3809-28.0625a23.4064 23.4064 0 0 1 10.2385-2.7366c9.4609 0 51.1465 14.0762 51.1484 63.1562-.0019 49.0782-40.1757 82.4395-78.2363 91.9707l2.9063 13.5723s90.4916-19.8692 90.4916-106.7067c0 0 .002-77.8028-67.955-77.8047 0 0-29.6543-.2383-44.2578 20.7812 0-3.875.5878-8.56 2.82-12.4257 4.73-8.1934 37.7636-37.2559 80.27-12.7168 42.5019 24.541 51.3066 76.0136 40.5293 113.7382l13.207 4.27s28.0393-88.3032-47.1635-131.7231z" fill="#ac782d"/><path d="m83.89 226.568-44.93-77.82 44.93-77.82h89.86l44.93 77.82-44.93 77.82z" fill="#bebdbc"/><path d="m86.199 222.568-42.62-73.82 42.62-73.82h85.241l42.621 73.82-42.621 73.82z" fill="#c4912c"/><path d="m154.469 108.416v24.219l-2.921 5.51h-48.379v-29.729h-29.546v80.666h29.546v-29.547h41.693l9.607-17.402v46.949h29.548v-80.666z" fill="#231f20"/><path d="m177.6815 114.083h.0023v.253h-.0023z"/><g fill="#231f20"><path d="m333.847 95.807h-33.258v-19.31h-19.212v52.402h19.212v-19.212h26.962l6.296-11.261v30.473h19.31v-52.402h-19.31z"/><path d="m410.6958 110.4844c0 2.8151-2.3512 4.2056-6.9575 4.2056h-17.2583c-4.7688 0-7.1194-1.3905-7.1194-4.2056v-34.0519h-19.1478v37.396c0 10.0368 6.0613 15.0059 18.252 15.0059h33.2921c12.055 0 18.0177-4.9691 18.0177-15.0059v-37.396h-19.0788z"/><path d="m508.7127 101.6377v-10.3655a33.9236 33.9236 0 0 0 -.6649-6.594 8.8194 8.8194 0 0 0 -2.6824-4.5691 11.9928 11.9928 0 0 0 -5.3666-2.8188 40.3077 40.3077 0 0 0 -9.1754-.8578h-53.8271v52.4019h19.2121v-14.1444h10.9659l20.5351 14.1444h24.3816l-18.6832-14.1444c10.1355-.5966 15.3049-4.87 15.3049-13.0523m-19.1818-5.43c0 2.9478-2.482 4.5387-7.12 4.5387h-20.1071l-6.0954 13.0826v-23.6831h26.2025c4.638 0 7.12 1.4891 7.12 4.437z"/><path d="m587.7147 101.6377v-10.3655a22.2058 22.2058 0 0 0 -.6649-6.594 10.3589 10.3589 0 0 0 -7.8152-7.3879 41.09 41.09 0 0 0 -9.3416-.8578h-53.9288v52.4019h19.3448v-14.1444h11.0993l20.5679 14.1444h24.381l-18.8829-14.1444c10.1044-.5966 15.24-4.87 15.24-13.0523m-19.1477-5.43c0 2.9478-2.35 4.5387-7.09 4.5387h-20.104l-6.0644 13.0826v-23.6831h26.1684c4.74 0 7.09 1.4891 7.09 4.437z"/><path d="m595.1665 76.4325h19.3108v52.3002h-19.3108z"/><path d="m621.5017 87.5615v29.7785c0 7.618 4.1083 11.4949 12.4215 11.4949h57.47v-14.1449h-50.6793v-24.5441h50.6789v-13.7134h-57.47c-8.3132 0-12.4215 3.6766-12.4215 11.129"/><path d="m726.8693 76.4325-30.2766 52.4019h48.5932l5.2339-12.1566 7.6521 12.1566h19.6432l-30.307-52.4019zm-2.2178 38.2575 12.6857-20.04 12.1228 20.04z"/><path d="m838.17 110.4844c0 2.12-1.1939 3.4769-4.1417 4.0394-2.2185-.43-3.7107-1.2243-4.1752-2.9472v-20.3044c0-9.9723-6.0278-14.84-18.2831-14.84h-10.403c-12.0549 0-18.1168 4.8674-18.1168 14.84v37.5622h19.2134v-34.2515c0-2.1844 1.4246-3.4769 4.0729-3.9756 2.4181.4311 3.741 1.3906 4.1721 2.9479v20.2733c0 10.0368 5.9627 15.0059 18.35 15.0059h10.3357c11.926 0 18.1541-4.9691 18.1541-15.0059v-37.396h-19.1784z"/><path d="m864.4679 87.5615v29.7785c0 7.618 4.1423 11.4949 12.5883 11.4949h57.0752v-14.1449h-50.4179v-5.3015h40.778l6.0613-13.8766h-41.9347l-4.9046 11.129v-16.495h50.4179v-13.7134h-57.0752c-8.446 0-12.5883 3.6766-12.5883 11.129"/><path d="m334.014 187.198h-33.357v-19.31h-19.28v52.402h19.28v-19.212h27.095l6.262-11.261v30.473h18.88v-52.402h-18.88z"/><path d="m410.73 186.9336h-25.738c-2.4833 0-3.8434-.2642-4.5728-.96a5.1362 5.1362 0 0 1 -.8918-3.2455v-14.905h-19.2123v20.7013a16.8145 16.8145 0 0 0 .8919 6.0278 10.8242 10.8242 0 0 0 3.1816 3.7107 9.53 9.53 0 0 0 4.6373 2.0554 33.3824 33.3824 0 0 0 5.9292.4614h30.5067l5.2681-12.2553v15.4711c-.2983 1.3564-1.9537 2.0857-4.9691 2.0857h-45.6119v14.0428h56.3439a22.34 22.34 0 0 0 6.6245-.8584 10.6882 10.6882 0 0 0 4.1417-2.52 9.1573 9.1573 0 0 0 2.2179-3.7411 46.4707 46.4707 0 0 0 .5972-5.1359v-40.0455h-19.3441z"/><path d="m488.0424 167.8231h-51.0114v52.4026h51.0114c12.3874 0 18.6155-4.9691 18.6155-15.0059v-22.5563c0-9.9724-6.2281-14.84-18.6155-14.84m-.7624 34.0515c0 2.8157-2.12 4.2062-6.7907 4.2062h-24.0799v-24.544h24.0795c4.6708 0 6.7907 1.4891 6.7907 4.4363z"/><path d="m585.3951 193.029v-10.3655a28.0512 28.0512 0 0 0 -.5631-6.5941 8.4222 8.4222 0 0 0 -2.8152-4.5691 10.1877 10.1877 0 0 0 -5.3319-2.8188 37.5249 37.5249 0 0 0 -9.0773-.8584h-53.8948v52.4026h19.2463v-14.1445h11.03l20.3725 14.1445h24.6117l-18.7811-14.1445c10.1348-.5966 15.2025-4.87 15.2025-13.0522m-19.0459-5.4306c0 2.9479-2.5168 4.5387-7.2211 4.5387h-20.04l-6.1286 13.0829v-23.6828h26.169c4.7043 0 7.2211 1.4891 7.2211 4.4363z"/><path d="m649.8557 167.8231h-38.59c-12.2212 0-18.4487 4.868-18.4487 14.84v22.5569c0 10.0368 6.2275 15.0059 18.4487 15.0059h38.59c12.5877 0 18.7817-4.9691 18.7817-15.0059v-22.5565c0-9.9724-6.194-14.84-18.7817-14.84m-.5966 34.0519c0 2.8157-2.2185 4.2062-6.9228 4.2062h-23.3843c-4.7049 0-6.7906-1.3905-6.7906-4.2062v-15.9019c0-2.9472 2.0857-4.4363 6.7906-4.4363h23.3843c4.7043 0 6.9228 1.4891 6.9228 4.4363z"/><path d="m730.581 167.823-20.837 34.052-20.935-34.052h-19.575l30.311 52.301h20.402l29.979-52.301z"/><path d="m763.673 167.8231-30.178 52.4026h48.4605l5.366-12.1567 7.3879 12.1567h19.6767l-30.1439-52.4026zm-2.0553 38.2581 12.5536-20.04 11.96 20.04z"/><path d="m885.6039 181.5372v-13.7141h-57.2054c-8.2835 0-12.3229 3.7418-12.3229 11.13v29.7769c0 7.5542 4.0394 11.56 12.3229 11.56h57.2054v-14.1443h-50.4489v-24.6085z"/></g></svg>