<svg height="297.4961" viewBox="0 0 940.7157 297.4961" width="940.7157" xmlns="http://www.w3.org/2000/svg" xmlns:xlink="http://www.w3.org/1999/xlink"><pattern id="a" height="14.667" patternUnits="userSpaceOnUse" viewBox="0 0 14.667 14.667" width="14.667"><path d="m0 0h14.667v14.667h-14.667z" fill="none"/><path d="m0 0h14.667v14.667h-14.667z" fill="#231f20"/></pattern><path d="m128.82 0-128.82 74.374v148.748l128.82 74.374 128.819-74.374v-148.748z" fill="#ac782d"/><path d="m2 221.968v-146.44l126.82-73.218 126.819 73.218v146.44l-126.819 73.218z" fill="#c4912c"/><path d="m18 212.729v-127.962l110.82-63.983 110.819 63.983v127.962l-110.819 63.983z" fill="#bebdbc"/><path d="m20 211.575v-125.654l108.82-62.827 108.819 62.827v125.654l-108.819 62.827z" fill="url(#a)"/><path d="m199.39 81.6416s-67.377-38.9-101.3575 19.9492c0 0-15.7988 26.8575-3.27 50.4512-3.7812-1.8633-8.9062-5.1016-11.6719-9.8926-4.73-8.1933-13.3808-51.334 29.1231-75.875 42.5039-24.5371 91.4824-6.4258 118.7637 21.77l10.3026-9.3032s-62.4528-68.4336-137.6579-25.0156c0 0-67.3789 38.9-33.4024 97.752 0 0 18.834 33.2382 51.0411 27.3867l-.0606.082s-8.9785 8.2441-18.4394 8.2441-51.1485-14.0761-51.1485-63.1543c0-49.08 40.1758-82.4414 78.2363-91.9707l-2.9062-13.5722s-90.4941 19.8691-90.4941 106.7068c0 0 0 77.8027 67.955 77.8027 0 0 32.7325.2637 46.3516-24.1386a23.7125 23.7125 0 0 1 -2.7715 10.5566c-4.73 8.1934-37.7637 37.2559-80.2676 12.7168s-51.3086-76.0115-40.5312-113.7381l-13.207-4.2694s-28.0391 88.3047 47.164 131.7227c0 0 67.3789 38.9023 101.3574-19.9493 0 0 14.752-25.082 4.4336-48.06a23.9032 23.9032 0 0 1 7.9688 7.8144c4.73 8.1934 13.3828 51.334-29.1211 75.875-42.5039 24.5371-91.4824 6.4258-118.7656-21.7695l-10.3008 9.3027s62.4531 68.433 137.6561 25.0151c0 0 67.3789-38.9 33.4024-97.752 0 0-15.4844-27.3262-42.3809-28.0625a23.4064 23.4064 0 0 1 10.2385-2.7366c9.4609 0 51.1465 14.0762 51.1484 63.1562-.0019 49.0782-40.1757 82.4395-78.2363 91.9707l2.9063 13.5723s90.4916-19.8692 90.4916-106.7067c0 0 .002-77.8028-67.955-77.8047 0 0-29.6543-.2383-44.2578 20.7812 0-3.875.5878-8.56 2.82-12.4257 4.73-8.1934 37.7636-37.2559 80.27-12.7168 42.5019 24.541 51.3066 76.0136 40.5293 113.7382l13.207 4.27s28.0393-88.3032-47.1635-131.7231z" fill="#ac782d"/><path d="m83.89 226.568-44.93-77.82 44.93-77.82h89.86l44.93 77.82-44.93 77.82z" fill="#bebdbc"/><path d="m86.199 222.568-42.62-73.82 42.62-73.82h85.241l42.621 73.82-42.621 73.82z" fill="#c4912c"/><path d="m154.469 108.416v24.219l-2.921 5.51h-48.379v-29.729h-29.546v80.666h29.546v-29.547h41.693l9.607-17.402v46.949h29.548v-80.666z" fill="#231f20"/><path d="m177.6815 114.083h.0023v.253h-.0023z"/><g fill="#231f20"><path d="m334.418 97.952h-33.592v-19.504h-19.404v52.928h19.404v-19.405h27.233l6.359-11.374v30.779h19.504v-52.928h-19.504z"/><path d="m412.0366 112.7761c0 2.8433-2.3747 4.2484-7.0271 4.2484h-17.4314c-4.8166 0-7.1907-1.4051-7.1907-4.2484v-34.393h-19.3395v37.7713c0 10.1373 6.122 15.1562 18.435 15.1562h33.6256c12.1757 0 18.1981-5.0189 18.1981-15.1562v-37.7713h-19.27z"/><path d="m511.0354 103.8414v-10.47a34.27 34.27 0 0 0 -.6715-6.66 8.9038 8.9038 0 0 0 -2.7093-4.6142 12.1071 12.1071 0 0 0 -5.42-2.8471 40.71 40.71 0 0 0 -9.2672-.867h-54.3668v52.9275h19.4046v-14.2861h11.0758l20.7407 14.2861h24.6258l-18.87-14.2861c10.2369-.6033 15.4581-4.92 15.4581-13.1831m-19.3739-5.4849c0 2.9768-2.5069 4.5835-7.1913 4.5835h-20.3087l-6.1565 13.2144v-23.92h26.4648c4.6844 0 7.1913 1.504 7.1913 4.4808z"/><path d="m590.8288 103.8414v-10.47a22.4313 22.4313 0 0 0 -.6715-6.66 10.4637 10.4637 0 0 0 -7.8935-7.4613 41.5 41.5 0 0 0 -9.4352-.867h-54.4686v52.9275h19.5387v-14.2861h11.21l20.774 14.2861h24.6252l-19.072-14.2861c10.2056-.6033 15.393-4.92 15.393-13.1831m-19.34-5.4849c0 2.9768-2.3735 4.5835-7.1606 4.5835h-20.305l-6.1251 13.2144v-23.92h26.4305c4.7871 0 7.1606 1.504 7.1606 4.4808z"/><path d="m598.3552 78.3831h19.5042v52.8247h-19.5042z"/><path d="m624.9543 89.6236v30.0764c0 7.6949 4.1494 11.6107 12.5459 11.6107h58.0453v-14.2862h-51.1866v-24.79h51.1866v-13.8514h-58.0455c-8.3965 0-12.5459 3.7141-12.5459 11.24"/><path d="m731.3774 78.3831-30.58 52.9275h49.08l5.2864-12.2785 7.7288 12.2785h19.84l-30.6107-52.9275zm-2.24 38.6414 12.8128-20.24 12.244 20.24z"/><path d="m843.7928 112.7761c0 2.1411-1.2058 3.5117-4.1832 4.0805-2.2407-.4354-3.7479-1.2372-4.2171-2.9774v-20.5077c0-10.0722-6.0881-14.9884-18.4662-14.9884h-10.5069c-12.1758 0-18.2984 4.9162-18.2984 14.9884v37.9391h19.4059v-34.5953c0-2.2063 1.4389-3.5117 4.1137-4.0154 2.4424.4354 3.7785 1.4051 4.2139 2.9774v20.4771c0 10.1373 6.0224 15.1562 18.5339 15.1562h10.4393c12.0454 0 18.3359-5.0189 18.3359-15.1562v-37.7713h-19.3708z"/><path d="m870.3543 89.6236v30.0764c0 7.6949 4.1838 11.6107 12.7144 11.6107h57.647v-14.2862h-50.923v-5.3545h41.1865l6.122-14.0155h-42.3547l-4.9538 11.24v-16.66h50.923v-13.8514h-57.647c-8.5306 0-12.7144 3.7141-12.7144 11.24"/><path d="m351.8759 171.3752v15.2326h-45.58c-1.9031 0-3.0776.1654-3.5117.4773a1.6455 1.6455 0 0 0 -.6546 1.4314v.2387a1.2383 1.2383 0 0 0 .5324 1.0091c.3609.2813 1.5661.416 3.6339.416h26.7757a31.6564 31.6564 0 0 1 8.87 1.0705 15.5168 15.5168 0 0 1 5.8295 2.9793 10.6659 10.6659 0 0 1 3.1571 4.6367 18.1655 18.1655 0 0 1 .9478 5.9523v4.1663q0 8.0931-4.6368 11.7266-4.6436 3.6251-14.2842 3.6276h-51.5325v-15.4707h46.5348a6.05 6.05 0 0 0 2.5571-.3608 1.36 1.36 0 0 0 .6546-1.3092v-.1166a1.6858 1.6858 0 0 0 -.416-1.0091c-.2819-.3608-1.2115-.5381-2.7957-.5381h-27.73q-9.2865 0-14.0456-4.1663-4.762-4.1655-4.7589-11.305v-3.3338a21.1032 21.1032 0 0 1 .887-6.3068 11.2046 11.2046 0 0 1 3.04-4.8817 14.046 14.046 0 0 1 5.7687-3.0958 33.2127 33.2127 0 0 1 9.2253-1.07z"/><path d="m434.0021 189.4643v19.5211a15.549 15.549 0 0 1 -2.38 8.8087 10.3119 10.3119 0 0 1 -3.9277 3.5725 19.8121 19.8121 0 0 1 -5.3584 2.2576h.1222a8.44 8.44 0 0 1 -1.4314.2387c-.71.0789-1.45.1585-2.2025.238s-1.7615.1591-3.0343.2387h-11.1883q-2.4957 0-4.82-.1773a19.0447 19.0447 0 0 1 -4.3436-.8319 15.263 15.263 0 0 1 -3.8663-1.9087 14.55 14.55 0 0 1 -3.5111-3.5111 13.83 13.83 0 0 1 -2.5019-7.3779v-21.1843q-.4773-1.67-3.2117-2.2633-3.2117.5958-3.2116 2.9787v34.2762h-20.9465v-37.61q0-15.3518 19.0375-15.3548h10.3566q19.0407 0 19.0438 15.3548v19.637c.3971 1.1131 1.5046 1.8654 3.3338 2.2632a3.0988 3.0988 0 0 0 2.973-2.2632v-19.637q0-15.3518 19.0431-15.3548h10.2345q19.05 0 19.0438 15.3548v37.61h-20.8241v-34.2762q0-2.3858-3.3338-2.9787c-1.8291.3972-2.8565 1.1927-3.0951 2.3792z"/><path d="m538.0216 171.3752v15.2326h-45.58c-1.9024 0-3.077.1654-3.5117.4773a1.6455 1.6455 0 0 0 -.6546 1.4314v.2387a1.24 1.24 0 0 0 .5324 1.0091c.3609.2813 1.5661.416 3.6339.416h26.7757a31.6564 31.6564 0 0 1 8.87 1.0705 15.5243 15.5243 0 0 1 5.83 2.9793 10.67 10.67 0 0 1 3.1565 4.6367 18.15 18.15 0 0 1 .9478 5.9523v4.1663q0 8.0931-4.6368 11.7266-4.6427 3.6251-14.2842 3.6276h-51.5325v-15.4707h46.5349a6.05 6.05 0 0 0 2.5571-.3608 1.36 1.36 0 0 0 .6546-1.3092v-.1166a1.6858 1.6858 0 0 0 -.416-1.0091c-.2819-.3608-1.2115-.5381-2.7957-.5381h-27.73q-9.2864 0-14.0455-4.1663-4.762-4.1655-4.759-11.305v-3.3338a21.1032 21.1032 0 0 1 .8871-6.3068 11.2046 11.2046 0 0 1 3.04-4.8817 14.05 14.05 0 0 1 5.7687-3.0958 33.2127 33.2127 0 0 1 9.2253-1.07z"/></g></svg>